{
	"asset":{
		"generator":"Khronos glTF Blender I/O v4.3.47",
		"version":"2.0"
	},
	"extensionsUsed":[
		"KHR_materials_specular"
	],
	"scene":0,
	"scenes":[
		{
			"name":"Scene",
			"nodes":[
				0
			]
		}
	],
	"nodes":[
		{
			"mesh":0,
			"name":"Suzanne"
		}
	],
	"materials":[
		{
			"doubleSided":true,
			"extensions":{
				"KHR_materials_specular":{
					"specularFactor":0
				}
			},
			"name":"Material.001",
			"pbrMetallicRoughness":{
				"baseColorFactor":[
					0.02129468321800232,
					0.18017733097076416,
					0.4248969852924347,
					1
				],
				"metallicFactor":0,
				"roughnessFactor":0
			}
		}
	],
	"meshes":[
		{
			"name":"Suzanne",
			"primitives":[
				{
					"attributes":{
						"POSITION":0,
						"NORMAL":1,
						"TEXCOORD_0":2
					},
					"indices":3,
					"material":0
				}
			]
		}
	],
	"accessors":[
		{
			"bufferView":0,
			"componentType":5126,
			"count":32049,
			"max":[
				1.3486666679382324,
				0.9613716006278992,
				0.834426999092102
			],
			"min":[
				-1.3486665487289429,
				-0.9787293076515198,
				-0.8168402910232544
			],
			"type":"VEC3"
		},
		{
			"bufferView":1,
			"componentType":5126,
			"count":32049,
			"type":"VEC3"
		},
		{
			"bufferView":2,
			"componentType":5126,
			"count":32049,
			"type":"VEC2"
		},
		{
			"bufferView":3,
			"componentType":5123,
			"count":188928,
			"type":"SCALAR"
		}
	],
	"bufferViews":[
		{
			"buffer":0,
			"byteLength":384588,
			"byteOffset":0,
			"target":34962
		},
		{
			"buffer":0,
			"byteLength":384588,
			"byteOffset":384588,
			"target":34962
		},
		{
			"buffer":0,
			"byteLength":256392,
			"byteOffset":769176,
			"target":34962
		},
		{
			"buffer":0,
			"byteLength":377856,
			"byteOffset":1025568,
			"target":34963
		}
	],
	"buffers":[
		{
			"byteLength":1403424,
			"uri":"tempts.bin"
		}
	]
}
